<svg xmlns="http://www.w3.org/2000/svg" viewBox="0 0 2145.07 627.84"><defs><style>.cls-1{fill:#fff;fill-rule:evenodd;}.cls-2{fill:#ff4e00;}</style></defs><g id="Layer_2" data-name="Layer 2"><g id="Layer_1-2" data-name="Layer 1"><path class="cls-1" d="M2139.86,419.74a59.62,59.62,0,0,0-14.59-2.42,30.58,30.58,0,0,0-14.08,3.11,37.62,37.62,0,0,0-10.77,8.32q-4.68,5.17-13.38,15.92V549.23h-49V370.92h49V400h2.79q10.05-17.65,20-26t24.85-8.32a33.81,33.81,0,0,1,10.42,1.39Zm-204-241.43q3.46,18.38,16,27.87t33.69,9.53a116.31,116.31,0,0,0,26.76-3.28,102.36,102.36,0,0,0,24.33-8.83l8,39.12A131.35,131.35,0,0,1,2013.91,254a149.28,149.28,0,0,1-34.23,4q-43.44,0-68.28-24.93t-24.86-69.24q0-28.74,10.79-50A77.07,77.07,0,0,1,1927.72,81q19.65-11.42,46-11.42,38.91,0,59.77,24.93t20.85,72c0,5.32-.12,9.23-.35,11.77Zm61.16-60.41q-9.39-8.82-25-8.83-14.94,0-24.49,8.65t-12,23.9h71.92Q2006.45,126.74,1997.05,117.9ZM1979.67,391q20.85,24.93,20.84,72,0,8-.34,11.77H1882q3.46,18.34,16,27.87t33.71,9.52a116.31,116.31,0,0,0,26.76-3.28,101.93,101.93,0,0,0,24.33-8.84l8,39.13A130.43,130.43,0,0,1,1960,550.44a148.26,148.26,0,0,1-34.23,4q-43.44,0-68.29-24.93t-24.85-69.25q0-28.72,10.78-50a77,77,0,0,1,30.4-32.71q19.65-11.43,46-11.43Q1958.81,366.08,1979.67,391Zm-86,23.19q-9.57,8.67-12,23.9h71.93q-1-14.89-10.42-23.72t-25-8.84Q1903.22,405.54,1893.67,414.2ZM1758.67,258q-27.81,0-65.67-8.3V0h48.3V91.76q20.49-22.16,50.39-22.16,30.58,0,48,23T1857,156.85q0,49.17-25.38,75.14T1758.67,258Zm41.87-133.3q-7.47-12.45-21-12.47-11.12,0-20.85,7.8t-17.37,22.67v69.6a81.13,81.13,0,0,0,22.58,3.12q21.55,0,32.84-14.21T1808,159.61Q1808,137.13,1800.54,124.65Zm-65.86,241.43q28.86,0,45.18,17.13t16.34,47.62v118.4h-49V438.44q0-13.85-7-21.64T1721.48,409q-12.87,0-24.5,8.82A65.89,65.89,0,0,0,1678,441.21v108h-49V296.48h49V396.89q10.79-15.93,24.68-23.37T1734.68,366.08ZM1598.83,229.21a75.82,75.82,0,0,1-23.12,21q-13,7.44-31.44,7.44-28.5,0-44.84-17.31t-16.32-47.44V74.44h49V184.9q0,14.21,7,22t18.75,7.78q11.82,0,22.77-7.62a61.16,61.16,0,0,0,18.25-20.42V74.44h49V252.77h-49Zm-192.18,23.56h-50.73v-187h-63.25V22.16H1469.2V65.79h-62.55Zm-41,113.31q38.94,0,59.77,24.93t20.85,72q0,8-.34,11.77H1327.77q3.46,18.34,16,27.87t33.71,9.52a116.23,116.23,0,0,0,26.75-3.28,101.93,101.93,0,0,0,24.33-8.84l8,39.13a130.59,130.59,0,0,1-30.75,11.24,148.26,148.26,0,0,1-34.23,4q-43.44,0-68.29-24.93t-24.85-69.25q0-28.72,10.78-50a77,77,0,0,1,30.41-32.71Q1339.23,366.08,1365.64,366.08Zm33.71,72q-1-14.89-10.42-23.72t-25-8.84q-14.94,0-24.5,8.66t-12,23.9ZM1210.66,229.21a75.79,75.79,0,0,1-23.11,21q-13,7.44-31.45,7.44-28.5,0-44.82-17.31t-16.34-47.44V74.44h49V184.9q0,14.21,7,22c4.64,5.19,10.88,7.78,18.77,7.78s15.46-2.53,22.76-7.62a61.13,61.13,0,0,0,18.24-20.42V74.44h49V252.77h-49Zm-39.61,319.34a66.87,66.87,0,0,1-28.16,5.88q-30.57,0-47.77-23t-17.19-63.88q0-49.5,25.54-75.48t73.13-26q27.47,0,65.35,8.31.66,71.33.68,107.34,0,32.19-.34,48.46-.69,49.17-24.85,73.41t-72.8,24.24a231.71,231.71,0,0,1-60.47-8l9.39-42.94q33.36,9.67,55.59,9.69,17.73,0,27.29-5.54T1190,563.78q4-11.78,4.69-32.2h-1A66.88,66.88,0,0,1,1171.05,548.55Zm22.58-136.77a84.86,84.86,0,0,0-22.24-3.12q-21.89,0-33.18,14.21t-11.3,41.19q0,22.51,7.47,35.14t21.37,12.65q10.79,0,20.69-8T1194,481.37ZM1015.2,246Q994.51,258,967.76,258q-27.1,0-47.78-11.77a81.88,81.88,0,0,1-32.14-33.07q-11.46-21.29-11.47-49.33t11.29-49.35a81,81,0,0,1,32-33.06Q940.3,69.61,967.42,69.6t47.78,11.59a80,80,0,0,1,32,32.72q11.3,21.14,11.3,48.83,0,28-11.3,49.69A81.38,81.38,0,0,1,1015.2,246ZM997.48,125.86q-11.31-14-30.06-14t-30.07,14q-11.28,14-11.29,37.56t11.29,37.92q11.29,14.37,30.07,14.37t30.06-14.37q11.28-14.35,11.3-37.92T997.48,125.86ZM810.69,252.77H760.31V156.85L682.81,22.16h56.65l46.91,91.07,46.57-91.07h55.59L810.69,156.85ZM868,362.27H805.49v187H754.75v-187H691.5V318.65H868Zm39.79,15.58q20.65-11.76,47.78-11.77t47.77,11.59a80,80,0,0,1,32,32.72q11.3,21.14,11.29,48.83,0,28-11.29,49.69a81.34,81.34,0,0,1-32,33.57Q982.71,554.42,956,554.43q-27.11,0-47.78-11.77A82,82,0,0,1,876,509.6q-11.47-21.32-11.47-49.35t11.29-49.33A80.69,80.69,0,0,1,907.83,377.85Zm17.71,120q11.3,14.35,30.07,14.36t30.06-14.36q11.26-14.37,11.29-37.92t-11.29-37.57q-11.31-14-30.06-14t-30.07,14q-11.29,14-11.29,37.57T925.54,497.83Zm570.41-165q24.69-4.15,48.66-6.23v44.31h45.17v41.89h-45.17V497c0,4.84,1.44,8.54,4.35,11.08s7,3.81,12.33,3.81q9.74,0,22.24-4.51l10.77,36.71a107.33,107.33,0,0,1-45.86,10.38q-25,0-38.76-12.63T1496,506V412.81h-27.79V370.92H1496Z"/><path class="cls-2" d="M394.36,627.84H35.6c-27.92,0-44.89-30.66-30.18-54.39a247,247,0,0,1,134.33-105A126.92,126.92,0,0,1,87.87,365.53c.22-70.42,58.43-127.63,128.84-126.7a127.12,127.12,0,0,1,73.5,229.58,247,247,0,0,1,134.34,105C439.26,597.18,422.28,627.84,394.36,627.84Z"/><path class="cls-2" d="M597.88,627.84H452.45c.49-.79,1-1.6,1.41-2.41a68.28,68.28,0,0,0-1.64-69.14,280.26,280.26,0,0,0-47.56-57.74A78.19,78.19,0,0,1,379.44,443c0-.71,0-1.42,0-2.13.16-50.2,41.65-91,91.84-90.31A90.61,90.61,0,0,1,523.65,514.2a176.08,176.08,0,0,1,95.74,74.87A25.36,25.36,0,0,1,597.88,627.84Z"/><path class="cls-2" d="M623.26,30.52V320.06a30.52,30.52,0,0,1-30.52,30.52H557.32a10.1,10.1,0,0,1-6.62-2.48,122.38,122.38,0,0,0-79-30.09H470a122.73,122.73,0,0,0-80.55,30.1,10.06,10.06,0,0,1-13.23,0,10.18,10.18,0,0,1-3.4-6.21,158.48,158.48,0,0,0-44.27-88.15l-.13-.13a13.57,13.57,0,0,1,2.78-21.33l60.17-34.74a25.69,25.69,0,0,0,0-44.51L281.86,89.79A25.7,25.7,0,0,0,243.31,112v81.31a13.52,13.52,0,0,1-14.58,13.5q-5.76-.49-11.59-.57l-2.13,0c-79.79,0-146.26,59-157.9,135.65a10.14,10.14,0,0,1-10,8.67H30.52A30.51,30.51,0,0,1,0,320.06V30.52A30.51,30.51,0,0,1,30.52,0H592.74A30.52,30.52,0,0,1,623.26,30.52Z"/></g></g></svg>